PathFileType	4	(X/Y/Z)	/Users/niels/Desktop/University/Third Semester/Perception and Action/Exam/Gymnastics Motion Tracking/Code for Gym Tracking/Analyzed Data/Webcam_Backflip/id1_3_trajectory_Sports2D/id1_3_trajectory_Sports2D_px_person00.trc
DataRate	CameraRate	NumFrames	NumMarkers	Units	OrigDataRate	OrigDataStartFrame	OrigNumFrames
29.71698113207547	29.71698113207547	10	22	m	29.71698113207547	92	106
Frame#	Time	Hip			RHip			RKnee			RAnkle			RBigToe			RSmallToe			RHeel			LHip			LKnee			LAnkle			LBigToe			LSmallToe			LHeel			Neck			Head			Nose			RShoulder			RElbow			RWrist			LShoulder			LElbow			LWrist		
		X1	Y1	Z1	X2	Y2	Z2	X3	Y3	Z3	X4	Y4	Z4	X5	Y5	Z5	X6	Y6	Z6	X7	Y7	Z7	X8	Y8	Z8	X9	Y9	Z9	X10	Y10	Z10	X11	Y11	Z11	X12	Y12	Z12	X13	Y13	Z13	X14	Y14	Z14	X15	Y15	Z15	X16	Y16	Z16	X17	Y17	Z17	X18	Y18	Z18	X19	Y19	Z19	X20	Y20	Z20	X21	Y21	Z21	X22	Y22	Z22
92	3.0958730158730154	1.0052062399039388	-0.6231638061759385	0.0	0.9939411279062343	-0.6213810516936936	0.0	1.006617822260077	-0.7413582464387277	0.0	0.9783856197727107	-0.8714335734754557	0.0	1.0217839943471188	-0.9026672835977805	0.0	1.0083712423143691	-0.9044385795462452	0.0	0.9675629304201921	-0.8935994777967551	0.0	1.0182023678364192	-0.6226761886632171	0.0	1.0192884949510972	-0.7411087940677862	0.0	0.9849773985529734	-0.8663486982145878	0.0	1.0274776456174686	-0.8958804821116122	0.0	1.025701109247932	-0.8910450973430107	0.0	0.9692580393210146	-0.8860256120566735	0.0	1.0249770859483478	-0.4343243161998257	0.0	1.071887776464451	-0.3592801990374875	0.0	1.0689892340996943	-0.41121912626742396	0.0	0.9949958753984481	-0.4507960620585654	0.0	0.9857849014585006	-0.5294731024780218	0.0	1.0151585205593787	-0.597651533685069	0.0	1.0303257171777405	-0.46084759994796826	0.0	1.044275075658203	-0.5387389354728078	0.0	1.0832877535161445	-0.5977569066430124	0.0
93	3.129523809523809	1.0093931209795217	-0.6222567968218845	0.0	0.998271531552679	-0.6204718172311824	0.0	1.0063738057633738	-0.7395940004109398	0.0	0.9783193832427148	-0.8697883732192573	0.0	1.0210231949771817	-0.9015485368949456	0.0	1.0085201706458613	-0.9033104650159247	0.0	0.9681302996879759	-0.8923503224943233	0.0	1.0210581324914436	-0.621888509232076	0.0	1.0177325533316899	-0.7400223593598168	0.0	0.9846061124452146	-0.8652559620563144	0.0	1.0273381914858284	-0.8952314225581272	0.0	1.0249342321904575	-0.8902367909324339	0.0	0.9692424953211605	-0.8849732399976186	0.0	1.0239513476653075	-0.43116663628159074	0.0	1.0703374910935675	-0.3558174248409714	0.0	1.0677269354772203	-0.407304686740854	0.0	0.9948499278395153	-0.4493105275989715	0.0	0.9815851036234771	-0.5313046360352957	0.0	1.0041608568179816	-0.6067684823211311	0.0	1.0274990971200797	-0.4579728998381018	0.0	1.0356614434420217	-0.5387973613193912	0.0	1.0690392594430258	-0.6051552121268939	0.0
94	3.163174603174603	1.0130378355835172	-0.6211367861801379	0.0	1.002036024957745	-0.6193465263319895	0.0	1.0064517955307473	-0.7374208244426774	0.0	0.9783887571980657	-0.8678880819533126	0.0	1.0199568816686386	-0.9003081007699643	0.0	1.0081895099506357	-0.9020767433386375	0.0	0.9687073652598311	-0.8905061689613564	0.0	1.023293424296296	-0.6206040258585588	0.0	1.0161785748967445	-0.738426234415918	0.0	0.9843600013648628	-0.8640746421499076	0.0	1.026719627273157	-0.894382632670264	0.0	1.0240952074873804	-0.8895250641069362	0.0	0.969640715040629	-0.8838343005769648	0.0	1.023122170533866	-0.4277599965220269	0.0	1.0690230348819536	-0.352204199585978	0.0	1.0667009853102205	-0.40329345365048896	0.0	0.9948243749239586	-0.4473353042787544	0.0	0.9778080120791571	-0.5320469204253232	0.0	0.9938059176355627	-0.6136510750657621	0.0	1.0248756228977336	-0.4550287007150017	0.0	1.0278444305274643	-0.5382905579984908	0.0	1.056693488786621	-0.6108382555025026	0.0
95	3.1968253968253966	1.0158949681026923	-0.6197286977591806	0.0	1.0049958836235826	-0.6179346077688499	0.0	1.00701295754361	-0.7346347779131054	0.0	0.9785963772579644	-0.8655617674621173	0.0	1.0183882148233667	-0.8988545068595679	0.0	1.0071632551931522	-0.9006334044043246	0.0	0.9692921911403596	-0.8877568524261983	0.0	1.0246369287638226	-0.6186343873363519	0.0	1.0146395202095642	-0.7360707026829741	0.0	0.9842943968625214	-0.8627209592400513	0.0	1.0254357869539052	-0.8932213514385121	0.0	1.023110564237411	-0.8889143417151734	0.0	0.970551355930843	-0.8824982432026824	0.0	1.0225638808533057	-0.42401897543005346	0.0	1.0680250573539714	-0.34840703425856584	0.0	1.065949866325276	-0.39913975271230023	0.0	0.9949274729202569	-0.4446634475766196	0.0	0.9746407818880038	-0.5312916657184399	0.0	0.9843573267603412	-0.6174148077799694	0.0	1.0225294574578014	-0.452021777013056	0.0	1.0211435589735554	-0.5370051557103411	0.0	1.0469828741253018	-0.6141124117417802	0.0
96	3.23047619047619	1.0178572344142862	-0.6179820208984786	0.0	1.0070464408975348	-0.616188111104984	0.0	1.0081362281768407	-0.7311238903281567	0.0	0.9789374867902705	-0.8627097618262052	0.0	1.016224105784326	-0.8971263147283378	0.0	1.0053539124981676	-0.8989117835000388	0.0	0.9698849116558349	-0.883943919865009	0.0	1.0249672981837892	-0.6158843595570077	0.0	1.0131228969512895	-0.7328294558719646	0.0	0.9844342095373132	-0.8611361778879674	0.0	1.0234149888473731	-0.8916848340463868	0.0	1.0219448058391623	-0.8883870620271583	0.0	0.9720076048012478	-0.8808899517262159	0.0	1.0223071019587897	-0.4198993529086023	0.0	1.0673823820862476	-0.3444084063821432	0.0	1.065484732487222	-0.39481316151323886	0.0	0.9951608450483789	-0.4411948464417222	0.0	0.9721629643033992	-0.5288601071214357	0.0	0.9759095019207691	-0.6176944435689546	0.0	1.0204859855807176	-0.4489501000374424	0.0	1.0156725340845976	-0.534853452481945	0.0	1.0401787058394478	-0.6147097167575379	0.0
97	3.2641269841269835	1.019023762209649	-0.6159239243097401	0.0	1.0082896633853995	-0.6141346682553462	0.0	1.0097663112332043	-0.7269514549982987	0.0	0.9793881495278101	-0.8593686044484141	0.0	1.0135210688216154	-0.895136102787967	0.0	1.0028535990296286	-0.8969219823845803	0.0	0.9704847388104874	-0.879166437043219	0.0	1.02439585877376	-0.6124349223117684	0.0	1.0116286977144415	-0.7287875864970346	0.0	0.9847570109025865	-0.8593269572561375	0.0	1.0207486803508663	-0.8898036059842217	0.0	1.0206123838441123	-0.8879170403784022	0.0	0.9739342995106686	-0.8790150500538064	0.0	1.022315846737886	-0.4154411067819085	0.0	1.0670559505459691	-0.34023203213503433	0.0	1.0652641608837747	-0.39032588707575644	0.0	0.9955047274813448	-0.43701283387061957	0.0	0.9702963632241922	-0.5249455630558132	0.0	0.9683354067098636	-0.6149024747524453	0.0	1.0187054071159756	-0.4458209224610453	0.0	1.0112737670318797	-0.5319393618739474	0.0	1.0359139460630744	-0.6129590075316461	0.0
98	3.2977777777777773	1.0196310535235353	-0.6136417083466852	0.0	1.0089659253207512	-0.6118606564934825	0.0	1.011755595675345	-0.7223063510944165	0.0	0.9799115448562655	-0.8556736706894174	0.0	1.0104357298852116	-0.8929531950387151	0.0	0.9998712777639921	-0.8947338721336301	0.0	0.9710895580539858	-0.8737029067316594	0.0	1.023190435874495	-0.6084915121093822	0.0	1.0101517357355323	-0.7241774493834199	0.0	0.9852084804532973	-0.8573509079309409	0.0	1.0176343245733073	-0.8876750194380111	0.0	1.0191606953089807	-0.8874788025298224	0.0	0.9761843404459501	-0.8769410796049701	0.0	1.022509920786032	-0.4107445356228856	0.0	1.0669522368465638	-0.33593198531101676	0.0	1.0652111131182582	-0.3857230064337601	0.0	0.9959239140824917	-0.4323277362742525	0.0	0.9688586030232269	-0.5199930708934944	0.0	0.9613684112047045	-0.6099659066176119	0.0	1.0171067653140438	-0.4426515692175923	0.0	1.0076183007345874	-0.5284940286056552	0.0	1.0334115612351322	-0.609575426559367	0.0
99	3.331428571428571	1.019927547538857	-0.6112325272178001	0.0	1.0093273308781234	-0.6094618880591528	0.0	1.013945643389766	-0.7173953962813173	0.0	0.9804727007641847	-0.8517773428357671	0.0	1.0071367778122013	-0.8906588172224101	0.0	0.9966241275257411	-0.89243042184699	0.0	0.9716969872771387	-0.8678549665476526	0.0	1.0216330621621612	-0.6042733423972653	0.0	1.0086856101220902	-0.7192496066364842	0.0	0.985731338369735	-0.8552773822486219	0.0	1.0142752192006375	-0.8854066105956687	0.0	1.0176418923056452	-0.8870533742012167	0.0	0.9786091165033886	-0.8747502234652773	0.0	1.0228061366491523	-0.40591663632569835	0.0	1.0669725352825632	-0.3315651224266299	0.0	1.0652485791345516	-0.3810555677740829	0.0	0.9963834317992193	-0.4273634432540917	0.0	0.9676590121577906	-0.5144678702940947	0.0	0.954736420772145	-0.6038476805010143	0.0	1.0156079536206903	-0.4394608843740713	0.0	1.0043706600549251	-0.5247572028469337	0.0	1.031875696558122	-0.6052958938910179	0.0
100	3.3650793650793647	1.0200996036549883	-0.6087711811962037	0.0	1.0095628356760025	-0.6070120113734091	0.0	1.016216484710848	-0.7123765872280267	0.0	0.9810468920432788	-0.8477975721097499	0.0	1.00375208191518	-0.8883169937077332	0.0	0.9932738415675987	-0.8900774217409794	0.0	0.9723052288773887	-0.861851913588912	0.0	1.0199354041800874	-0.599945803415471	0.0	1.007225019999553	-0.7141941061904206	0.0	0.9862825832145388	-0.853161687681355	0.0	1.0108219293553395	-0.8830809088913201	0.0	1.0160958874391308	-0.8866295461723868	0.0	0.9810996978354952	-0.8725083445659537	0.0	1.0231425419677864	-0.4010378862285293	0.0	1.0670426361293273	-0.3271737326193818	0.0	1.0653203417869657	-0.3763629089102621	0.0	0.9968578792891869	-0.422288607215152	0.0	0.9665548375835344	-0.5087175367381186	0.0	0.9482379294011744	-0.5972652307658476	0.0	1.014148415292873	-0.43626298037340133	0.0	1.001282915275437	-0.5209071779345256	0.0	1.0307173273990282	-0.600667120696208	0.0
101	3.3987301587301584	1.0202577723986765	-0.6063022721563774	0.0	1.0097844662453244	-0.6045548693164854	0.0	1.018497114262445	-0.707343531838939	0.0	0.9816204752897111	-0.8438049955911818	0.0	1.0003570828319883	-0.8859666205579099	0.0	0.9899145253348723	-0.8877150629639764	0.0	0.9729134099743096	-0.8558294043460027	0.0	1.0182224654274676	-0.5956060660352402	0.0	1.0057660705093445	-0.7091231285235023	0.0	0.9868368801799623	-0.8510377300686617	0.0	1.0073615355906862	-0.8807471110450568	0.0	1.014546275256982	-0.8862021955042214	0.0	0.9835937124012275	-0.8702560774603246	0.0	1.0234827609064976	-0.39615452536850837	0.0	1.0671184700346863	-0.3227812560890643	0.0	1.0653939444568954	-0.37166739412476907	0.0	0.9973328085280653	-0.4172019539885501	0.0	0.9654612290702534	-0.5029454961999039	0.0	0.9417527654807185	-0.5906390932642913	0.0	1.0126923362497884	-0.43306516665222994	0.0	0.9982090997985232	-0.5170475563208536	0.0	1.029591212418802	-0.5960084096507318	0.0
